<svg width="16" height="16" viewBox="0 0 16 16" fill="none" xmlns="http://www.w3.org/2000/svg">
<g clip-path="url(#clip0_57_3437)">
<path d="M2.66669 4.66634C2.66669 4.31272 2.80716 3.97358 3.05721 3.72353C3.30726 3.47348 3.6464 3.33301 4.00002 3.33301H12C12.3536 3.33301 12.6928 3.47348 12.9428 3.72353C13.1929 3.97358 13.3334 4.31272 13.3334 4.66634V12.6663C13.3334 13.02 13.1929 13.3591 12.9428 13.6092C12.6928 13.8592 12.3536 13.9997 12 13.9997H4.00002C3.6464 13.9997 3.30726 13.8592 3.05721 13.6092C2.80716 13.3591 2.66669 13.02 2.66669 12.6663V4.66634Z" stroke="#6B7280" stroke-width="1.5" stroke-linecap="round" stroke-linejoin="round"/>
<path d="M10.6667 2V4.66667" stroke="#6B7280" stroke-width="1.5" stroke-linecap="round" stroke-linejoin="round"/>
<path d="M5.33331 2V4.66667" stroke="#6B7280" stroke-width="1.5" stroke-linecap="round" stroke-linejoin="round"/>
<path d="M2.66669 7.33301H13.3334" stroke="#6B7280" stroke-width="1.5" stroke-linecap="round" stroke-linejoin="round"/>
<path d="M4.66669 9.33301H4.67535" stroke="#6B7280" stroke-width="1.5" stroke-linecap="round" stroke-linejoin="round"/>
<path d="M6.67334 9.33301H6.67667" stroke="#6B7280" stroke-width="1.5" stroke-linecap="round" stroke-linejoin="round"/>
<path d="M8.67334 9.33301H8.67667" stroke="#6B7280" stroke-width="1.5" stroke-linecap="round" stroke-linejoin="round"/>
<path d="M10.6766 9.33301H10.68" stroke="#6B7280" stroke-width="1.5" stroke-linecap="round" stroke-linejoin="round"/>
<path d="M8.6767 11.333H8.68003" stroke="#6B7280" stroke-width="1.5" stroke-linecap="round" stroke-linejoin="round"/>
<path d="M4.67334 11.333H4.67667" stroke="#6B7280" stroke-width="1.5" stroke-linecap="round" stroke-linejoin="round"/>
<path d="M6.67334 11.333H6.67667" stroke="#6B7280" stroke-width="1.5" stroke-linecap="round" stroke-linejoin="round"/>
</g>
<defs>
<clipPath id="clip0_57_3437">
<rect width="16" height="16" fill="white"/>
</clipPath>
</defs>
</svg>
